<?xml version="1.0" standalone="no"?>
<!DOCTYPE svg PUBLIC "-//W3C//DTD SVG 20010904//EN"
 "http://www.w3.org/TR/2001/REC-SVG-20010904/DTD/svg10.dtd">
<svg version="1.0" xmlns="http://www.w3.org/2000/svg"
 width="1024.000000pt" height="1024.000000pt" viewBox="0 0 1024.000000 1024.000000"
 preserveAspectRatio="xMidYMid meet">

<g transform="translate(0.000000,1024.000000) scale(0.100000,-0.100000)"
fill="#000000" stroke="none">
<path d="M0 5120 l0 -5120 5120 0 5120 0 0 5120 0 5120 -5120 0 -5120 0 0
-5120z m5460 2456 c759 -103 1414 -541 1807 -1208 290 -489 397 -1075 303
-1653 -120 -745 -593 -1414 -1255 -1779 -294 -162 -620 -263 -960 -297 -164
-16 -463 -6 -624 21 -356 60 -679 184 -956 368 -159 106 -237 170 -374 305
-380 376 -627 847 -717 1372 -32 186 -43 463 -25 640 60 597 316 1135 732
1541 209 202 390 331 644 455 265 129 587 222 860 248 128 12 429 5 565 -13z"/>
<path d="M4870 7249 c-467 -53 -927 -276 -1265 -614 -148 -148 -277 -320 -378
-505 -32 -59 -107 -230 -107 -245 0 -3 136 -4 303 -1 941 17 1085 17 1117 1
26 -13 64 -83 275 -504 166 -333 252 -495 271 -510 39 -31 78 -27 114 12 17
17 84 120 149 227 443 730 675 1108 693 1128 21 21 28 22 185 22 90 0 163 -2
163 -5 0 -7 -296 -649 -525 -1140 -98 -209 -193 -414 -212 -455 -227 -489
-339 -720 -361 -743 -50 -53 -144 -59 -200 -12 -29 24 -47 63 -308 645 -303
679 -435 966 -452 989 l-19 26 -644 -4 c-404 -2 -646 -7 -650 -13 -7 -11 -26
-141 -35 -245 l-7 -73 109 0 c60 0 307 5 549 10 311 7 449 7 472 -1 47 -15 73
-57 73 -117 0 -64 -13 -99 -52 -139 -55 -57 -54 -57 -622 -49 l-519 8 7 -79
c6 -68 14 -115 32 -200 l4 -23 635 -2 634 -3 36 -35 c82 -78 109 -191 61 -247
l-24 -28 -621 3 c-408 1 -621 -1 -621 -8 0 -24 92 -216 149 -311 96 -161 184
-273 325 -415 292 -291 616 -476 1006 -572 159 -39 249 -52 430 -59 751 -29
1456 329 1872 953 524 784 472 1846 -124 2559 -358 429 -846 699 -1391 770
-127 16 -400 18 -527 4z"/>
</g>
</svg>
